<?xml version="1.0" encoding="utf-8"?>
<!-- Generator: Adobe Illustrator 17.1.0, SVG Export Plug-In . SVG Version: 6.00 Build 0)  -->
<!DOCTYPE svg PUBLIC "-//W3C//DTD SVG 1.1//EN" "http://www.w3.org/Graphics/SVG/1.1/DTD/svg11.dtd">
<svg version="1.1" id="Layer_1" xmlns="http://www.w3.org/2000/svg" xmlns:xlink="http://www.w3.org/1999/xlink" x="0px" y="0px"
	 viewBox="0 0 45 35" enable-background="new 0 0 45 35" xml:space="preserve">
<path fill="#2D9FC2" d="M43.8,18.5c0.1-0.1,0.1-0.1,0.1-0.2c0,0,0.1-0.1,0.1-0.2c0-0.1,0.1-0.1,0.1-0.2c0-0.1,0-0.1,0.1-0.2
	c0-0.1,0-0.1,0-0.2c0-0.1,0-0.2,0-0.3c0,0,0-0.1,0-0.1c0,0,0,0,0,0c0-0.1,0-0.3,0-0.4c0-0.1,0-0.1,0-0.2c0-0.1,0-0.1-0.1-0.2
	c0-0.1-0.1-0.1-0.1-0.2c0,0,0-0.1-0.1-0.1c-0.1-0.1-0.2-0.2-0.2-0.3L30.9,3.1c-0.8-0.8-2-0.8-2.7,0c-0.8,0.8-0.8,2,0,2.7l9.5,9.5
	h-35c-1.1,0-1.9,0.9-1.9,1.9s0.9,1.9,1.9,1.9h35.1l-9.7,10c-0.7,0.8-0.7,2,0,2.7c0.4,0.4,0.9,0.5,1.3,0.5c0.5,0,1-0.2,1.4-0.6
	l12.8-13.3c0,0,0,0,0,0L43.8,18.5C43.7,18.6,43.8,18.6,43.8,18.5z"/>
</svg>
